<svg id="Layer_1" enable-background="new 0 0 512 512" height="512" viewBox="0 0 512 512" width="512" xmlns="http://www.w3.org/2000/svg"><g clip-rule="evenodd" fill-rule="evenodd"><g><path d="m438.537 118.602v380.488h-365.075v-486.18h259.384v105.692z" fill="#e9eef2"/><path d="m332.846 118.602h105.691l-105.691-105.692z" fill="#d0d2d4"/></g><path d="m81.302 491.245v-470.494h243.696v97.843c0 4.333 3.51 7.843 7.843 7.843h97.856v364.808zm259.382-459.409v78.92h78.915zm105.676 86.757c0-2.039-.786-4.037-2.285-5.535l-105.685-105.699c-1.503-1.499-3.51-2.271-5.549-2.271v-.019h-259.382c-4.333 0-7.838 3.505-7.838 7.838v486.18c0 4.333 3.505 7.843 7.838 7.843h365.077c4.324 0 7.843-3.51 7.843-7.843v-380.494z"/></g></svg>