<?xml version="1.0" encoding="iso-8859-1"?>
<!-- Generator: Adobe Illustrator 19.0.0, SVG Export Plug-In . SVG Version: 6.00 Build 0)  -->
<svg version="1.1" id="Capa_1" xmlns="http://www.w3.org/2000/svg" xmlns:xlink="http://www.w3.org/1999/xlink" x="0px" y="0px"
	 viewBox="0 0 512.001 512.001" style="enable-background:new 0 0 512.001 512.001;" xml:space="preserve">
<path style="fill:#BAB8B9;" d="M146.283,7.463L132.456,21.29c-19.462,19.462-24.145,49.678-10.458,73.557
	c0.367,0.641,0.747,1.277,1.139,1.908l171.866,271.958l43.833-55.982L146.283,7.463z"/>
<path style="fill:#9E9C9D;" d="M295.003,368.714l43.833-55.983l-27.396-43.432c-21.691,12.023-37.538,30.67-46.35,52.083
	L295.003,368.714z"/>
<path style="fill:#D4D2D3;" d="M365.718,7.463l13.827,13.827c19.462,19.462,24.146,49.678,10.458,73.557
	c-0.367,0.641-0.747,1.277-1.139,1.908L216.998,368.714l-43.833-55.982L365.718,7.463z"/>
<path style="fill:#BAB8B9;" d="M216.998,368.714l29.946-47.387c-9.09-22.127-25.262-40.329-46.384-52.029l-27.396,43.433
	L216.998,368.714z"/>
<path style="fill:#DC5A64;" d="M78.422,495.754L78.422,495.754c36.893,19.511,82.618,5.42,102.129-31.474l35.61-67.336
	c19.511-36.893,5.42-82.618-31.474-102.129l0,0c-36.893-19.511-82.618-5.42-102.129,31.474l-35.61,67.336
	C27.437,430.519,41.528,476.243,78.422,495.754z M89.005,415.866l35.609-67.336c5.134-9.707,15.54-15.543,26.511-14.868
	c3.943,0.243,7.752,1.322,11.321,3.209c13.644,7.215,18.873,24.185,11.658,37.83l-35.61,67.336
	c-5.134,9.707-15.54,15.543-26.511,14.868c-0.001,0-0.001,0-0.001,0c-3.942-0.243-7.75-1.322-11.318-3.21
	C87.019,446.481,81.789,429.511,89.005,415.866z"/>
<circle style="fill:#BAB8B9;" cx="255.997" cy="244.995" r="12.102"/>
<path style="fill:#DC5A64;" d="M465.053,393.625l-35.61-67.336c-19.511-36.893-65.235-50.984-102.129-31.474l0,0
	c-36.893,19.511-50.984,65.235-31.474,102.129l35.61,67.336c19.511,36.893,65.235,50.984,102.129,31.474l0,0
	C470.472,476.243,484.564,430.519,465.053,393.625z M411.337,453.697c-3.568,1.887-7.376,2.966-11.318,3.21c0,0,0,0-0.001,0
	c-10.971,0.675-21.377-5.161-26.511-14.868l-35.61-67.336c-7.215-13.645-1.985-30.615,11.658-37.83
	c3.569-1.887,7.378-2.966,11.321-3.209c10.971-0.675,21.377,5.161,26.511,14.868l35.609,67.336
	C430.212,429.511,424.981,446.481,411.337,453.697z"/>
<circle cx="255.997" cy="245.005" r="12.102"/>
<path d="M398.302,464.344c15.439,0.114,29.324-10.228,33.856-24.934c2.794-9.068,1.896-18.672-2.53-27.042
	c0,0-35.582-67.285-35.609-67.336c-9.021-17.059-30.935-23.791-47.969-14.783c-17.299,9.147-23.931,30.666-14.782,47.968
	c0,0,35.589,67.296,35.61,67.336C373.134,457.387,385.578,464.25,398.302,464.344z M344.528,371.205
	c-5.282-9.988-1.454-22.411,8.532-27.693c9.879-5.225,22.477-1.331,27.695,8.534c0,0,35.581,67.283,35.609,67.337
	c5.208,9.848,1.276,22.504-8.535,27.692c-9.871,5.221-22.467,1.345-27.692-8.535L344.528,371.205z"/>
<path d="M74.915,502.394c40.088,21.2,91.104,5.419,112.266-34.598l35.61-67.336c6.95-13.142,10.172-27.571,9.59-42.04L256,321.047
	l23.671,37.456c-0.556,14.131,2.463,28.581,9.537,41.957l35.61,67.336c4.8,9.077,11.158,17.093,18.897,23.825
	c3.125,2.718,7.864,2.39,10.583-0.736c2.718-3.125,2.389-7.863-0.736-10.583c-6.339-5.515-11.548-12.082-15.481-19.52
	c0,0-35.59-67.297-35.61-67.336c-17.162-32.452-4.129-74.783,28.306-91.967c0.073-0.037,0.151-0.076,0.209-0.107
	c16.033-8.424,34.386-10.13,51.701-4.794c17.375,5.355,31.625,17.154,40.125,33.227l35.609,67.336
	c17.546,33.178,4.829,74.446-28.349,91.991c-16.45,8.699-35.269,10.297-52.99,4.501c-3.936-1.288-8.173,0.859-9.461,4.797
	c-1.288,3.938,0.859,8.173,4.797,9.461c21.347,6.986,44.809,5.006,64.668-5.497c40.49-21.414,56.01-71.775,34.597-112.266
	l-35.609-67.336c-10.372-19.615-27.763-34.016-48.968-40.551c-18.903-5.826-38.818-4.759-56.816,2.889l-25.772-40.857
	c0,0,91.58-144.967,91.993-145.687c15.216-26.546,10.421-60.509-11.663-82.591c0,0-13.813-13.813-13.826-13.827
	c-3.371-3.371-9.112-2.719-11.649,1.302L255.999,167.357l-59.196-93.847c-2.209-3.504-6.841-4.553-10.346-2.342
	c-3.504,2.21-4.553,6.842-2.342,10.346l63.015,99.902l-30.783,48.803c0,0-87.52-138.532-87.843-139.094
	c-11.857-20.684-8.051-47.216,9.253-64.521l7.188-7.188l22.723,36.024c2.209,3.504,6.841,4.554,10.346,2.343
	c3.504-2.21,4.553-6.843,2.342-10.346c0,0-27.676-43.876-27.732-43.966c-2.538-4.025-8.292-4.659-11.649-1.302L127.15,15.997
	c-22.083,22.083-26.878,56.046-11.659,82.596c0.411,0.715,91.99,145.683,91.99,145.683l-25.768,40.851
	c-10.214-4.318-21.246-6.583-32.291-6.583c-30.9,0-59.063,16.955-73.497,44.249l-35.61,67.336
	C18.904,430.619,34.424,480.981,74.915,502.394z M295.641,258.321l21.371,33.881c-0.126,0.083-0.246,0.171-0.372,0.255
	c-2.361,1.561-4.639,3.255-6.827,5.051c-12.41,10.174-21.532,23.643-26.351,38.914l-18.59-29.415L295.641,258.321z M367.055,19.416
	l7.187,7.188c17.306,17.306,21.111,43.837,9.257,64.516c-0.326,0.567-154.96,245.301-154.96,245.301
	c-3.626-11.489-9.688-21.959-17.753-30.778c-4.637-5.072-9.876-9.59-15.642-13.335c-0.053-0.034-0.103-0.072-0.156-0.106
	L367.055,19.416z M53.579,397.141l35.61-67.336c11.829-22.366,34.909-36.26,60.235-36.26c34.923,0,65.424,28.684,67.84,63.437
	c0.004,0.054,0.019,0.105,0.024,0.16c0.847,12.476-1.765,24.975-7.757,36.305c0,0-35.596,67.311-35.61,67.336
	c-17.308,32.728-59.258,45.659-91.991,28.349C48.75,471.586,36.033,430.318,53.579,397.141z"/>
<path d="M97.156,460.337c17.126,9.057,38.92,2.329,47.968-14.782l35.611-67.336c9.148-17.302,2.517-38.82-14.782-47.968
	c-17.129-9.058-38.921-2.329-47.969,14.783l-35.61,67.335C73.225,429.669,79.857,451.187,97.156,460.337z M95.636,419.382
	c0,0,35.567-67.255,35.609-67.336c5.213-9.857,17.859-13.735,27.694-8.534c9.986,5.282,13.815,17.705,8.533,27.692
	c0,0-35.564,67.247-35.611,67.336c-5.222,9.873-17.835,13.749-27.691,8.534C94.183,441.793,90.354,429.37,95.636,419.382z"/>
<g>
</g>
<g>
</g>
<g>
</g>
<g>
</g>
<g>
</g>
<g>
</g>
<g>
</g>
<g>
</g>
<g>
</g>
<g>
</g>
<g>
</g>
<g>
</g>
<g>
</g>
<g>
</g>
<g>
</g>
</svg>
